<svg width="17" height="18" viewBox="0 0 17 18" fill="none" xmlns="http://www.w3.org/2000/svg">
<path fill-rule="evenodd" clip-rule="evenodd" d="M5.41518 7.04756H10.8309V5.09623C10.8309 3.5869 9.61857 2.36334 8.12305 2.36334C6.62754 2.36334 5.41518 3.5869 5.41518 5.09623V7.04756ZM13.152 7.04756H13.5396C15.0351 7.04756 16.2475 8.27111 16.2475 9.78044V15.2462C16.2475 16.7555 15.0351 17.9791 13.5396 17.9791H2.70812C1.2126 17.9791 0.000244141 16.7555 0.000244141 15.2462V9.78044C0.000244141 8.27111 1.2126 7.04756 2.70812 7.04756H3.09415V5.09623C3.09415 2.29319 5.34567 0.020874 8.12305 0.020874C10.9004 0.020874 13.152 2.29319 13.152 5.09623V7.04756Z" fill="#9F9F9F"/>
<path fill-rule="evenodd" clip-rule="evenodd" d="M5.41518 7.04756H10.8309V5.09623C10.8309 3.5869 9.61857 2.36334 8.12305 2.36334C6.62754 2.36334 5.41518 3.5869 5.41518 5.09623V7.04756ZM13.152 7.04756H13.5396C15.0351 7.04756 16.2475 8.27111 16.2475 9.78044V15.2462C16.2475 16.7555 15.0351 17.9791 13.5396 17.9791H2.70812C1.2126 17.9791 0.000244141 16.7555 0.000244141 15.2462V9.78044C0.000244141 8.27111 1.2126 7.04756 2.70812 7.04756H3.09415V5.09623C3.09415 2.29319 5.34567 0.020874 8.12305 0.020874C10.9004 0.020874 13.152 2.29319 13.152 5.09623V7.04756Z" fill="#9F9F9F"/>
<mask id="mask0_0_5002" style="mask-type:luminance" maskUnits="userSpaceOnUse" x="0" y="0" width="17" height="18">
<path fill-rule="evenodd" clip-rule="evenodd" d="M5.41518 7.04756H10.8309V5.09623C10.8309 3.5869 9.61857 2.36334 8.12305 2.36334C6.62754 2.36334 5.41518 3.5869 5.41518 5.09623V7.04756ZM13.152 7.04756H13.5396C15.0351 7.04756 16.2475 8.27111 16.2475 9.78044V15.2462C16.2475 16.7555 15.0351 17.9791 13.5396 17.9791H2.70812C1.2126 17.9791 0.000244141 16.7555 0.000244141 15.2462V9.78044C0.000244141 8.27111 1.2126 7.04756 2.70812 7.04756H3.09415V5.09623C3.09415 2.29319 5.34567 0.020874 8.12305 0.020874C10.9004 0.020874 13.152 2.29319 13.152 5.09623V7.04756Z" fill="white"/>
</mask>
<g mask="url(#mask0_0_5002)">
</g>
</svg>
