<svg width="19" height="18" viewBox="0 0 19 18" fill="none" xmlns="http://www.w3.org/2000/svg">
<path fill-rule="evenodd" clip-rule="evenodd" d="M13.6405 9.76921C13.6405 10.4065 14.157 10.9231 14.7943 10.9231C15.4315 10.9231 15.9481 10.4065 15.9481 9.76921V9.00005C15.9479 5.96157 13.8546 3.32363 10.8957 2.63309C7.93683 1.94255 4.89218 3.38142 3.54711 6.10595C2.20204 8.83048 2.91106 12.1226 5.25842 14.0518C7.45489 15.8571 10.5627 16.0328 12.9423 14.5027C13.4783 14.1581 14.1922 14.3132 14.5369 14.8493C14.8815 15.3853 14.7263 16.0992 14.1903 16.4438C10.9692 18.5149 6.76511 18.2772 3.79322 15.8347C0.617383 13.2245 -0.341885 8.77049 1.47792 5.08435C3.29772 1.39822 7.41696 -0.548472 11.4202 0.385785C15.4234 1.32004 18.2555 4.88901 18.2557 8.99998V9.76921C18.2557 11.681 16.706 13.2307 14.7943 13.2307C13.7934 13.2307 12.8917 12.8059 12.2598 12.1268C11.5078 12.8126 10.5077 13.2307 9.40981 13.2307C7.07329 13.2307 5.17916 11.3366 5.17916 8.99998C5.17916 6.66339 7.07329 4.76921 9.40981 4.76921C11.7463 4.76921 13.6405 6.66339 13.6405 8.99998V9.76921ZM11.3341 8.99998C11.3341 7.93789 10.4732 7.0769 9.41107 7.0769C8.34898 7.0769 7.48799 7.93789 7.48799 8.99998C7.48799 10.0621 8.34898 10.9231 9.41107 10.9231C10.4732 10.9231 11.3341 10.0621 11.3341 8.99998Z" fill="#9F9F9F"/>
<path fill-rule="evenodd" clip-rule="evenodd" d="M13.6405 9.76921C13.6405 10.4065 14.157 10.9231 14.7943 10.9231C15.4315 10.9231 15.9481 10.4065 15.9481 9.76921V9.00005C15.9479 5.96157 13.8546 3.32363 10.8957 2.63309C7.93683 1.94255 4.89218 3.38142 3.54711 6.10595C2.20204 8.83048 2.91106 12.1226 5.25842 14.0518C7.45489 15.8571 10.5627 16.0328 12.9423 14.5027C13.4783 14.1581 14.1922 14.3132 14.5369 14.8493C14.8815 15.3853 14.7263 16.0992 14.1903 16.4438C10.9692 18.5149 6.76511 18.2772 3.79322 15.8347C0.617383 13.2245 -0.341885 8.77049 1.47792 5.08435C3.29772 1.39822 7.41696 -0.548472 11.4202 0.385785C15.4234 1.32004 18.2555 4.88901 18.2557 8.99998V9.76921C18.2557 11.681 16.706 13.2307 14.7943 13.2307C13.7934 13.2307 12.8917 12.8059 12.2598 12.1268C11.5078 12.8126 10.5077 13.2307 9.40981 13.2307C7.07329 13.2307 5.17916 11.3366 5.17916 8.99998C5.17916 6.66339 7.07329 4.76921 9.40981 4.76921C11.7463 4.76921 13.6405 6.66339 13.6405 8.99998V9.76921ZM11.3341 8.99998C11.3341 7.93789 10.4732 7.0769 9.41107 7.0769C8.34898 7.0769 7.48799 7.93789 7.48799 8.99998C7.48799 10.0621 8.34898 10.9231 9.41107 10.9231C10.4732 10.9231 11.3341 10.0621 11.3341 8.99998Z" fill="#9F9F9F"/>
<mask id="mask0_0_4931" style="mask-type:luminance" maskUnits="userSpaceOnUse" x="0" y="0" width="19" height="18">
<path fill-rule="evenodd" clip-rule="evenodd" d="M13.6405 9.76921C13.6405 10.4065 14.157 10.9231 14.7943 10.9231C15.4315 10.9231 15.9481 10.4065 15.9481 9.76921V9.00005C15.9479 5.96157 13.8546 3.32363 10.8957 2.63309C7.93683 1.94255 4.89218 3.38142 3.54711 6.10595C2.20204 8.83048 2.91106 12.1226 5.25842 14.0518C7.45489 15.8571 10.5627 16.0328 12.9423 14.5027C13.4783 14.1581 14.1922 14.3132 14.5369 14.8493C14.8815 15.3853 14.7263 16.0992 14.1903 16.4438C10.9692 18.5149 6.76511 18.2772 3.79322 15.8347C0.617383 13.2245 -0.341885 8.77049 1.47792 5.08435C3.29772 1.39822 7.41696 -0.548472 11.4202 0.385785C15.4234 1.32004 18.2555 4.88901 18.2557 8.99998V9.76921C18.2557 11.681 16.706 13.2307 14.7943 13.2307C13.7934 13.2307 12.8917 12.8059 12.2598 12.1268C11.5078 12.8126 10.5077 13.2307 9.40981 13.2307C7.07329 13.2307 5.17916 11.3366 5.17916 8.99998C5.17916 6.66339 7.07329 4.76921 9.40981 4.76921C11.7463 4.76921 13.6405 6.66339 13.6405 8.99998V9.76921ZM11.3341 8.99998C11.3341 7.93789 10.4732 7.0769 9.41107 7.0769C8.34898 7.0769 7.48799 7.93789 7.48799 8.99998C7.48799 10.0621 8.34898 10.9231 9.41107 10.9231C10.4732 10.9231 11.3341 10.0621 11.3341 8.99998Z" fill="white"/>
</mask>
<g mask="url(#mask0_0_4931)">
</g>
</svg>
