<svg width="24" height="22" viewBox="0 0 24 22" fill="none" xmlns="http://www.w3.org/2000/svg">
<path fill-rule="evenodd" clip-rule="evenodd" d="M12 2.93833C10.7283 1.445 8.78 0.5 6.75 0.5C3.15667 0.5 0.333332 3.32333 0.333332 6.91667C0.333332 11.3267 4.3 14.92 10.3083 20.38L12 21.9083L13.6917 20.3683C19.7 14.92 23.6667 11.3267 23.6667 6.91667C23.6667 3.32333 20.8433 0.5 17.25 0.5C15.22 0.5 13.2717 1.445 12 2.93833ZM12 18.7583L11.8834 18.6417C6.33002 13.6133 2.66669 10.2883 2.66669 6.91667C2.66669 4.58333 4.41669 2.83333 6.75002 2.83333C8.54669 2.83333 10.2967 3.98833 10.915 5.58667H13.0967C13.7034 3.98833 15.4534 2.83333 17.25 2.83333C19.5834 2.83333 21.3334 4.58333 21.3334 6.91667C21.3334 10.2883 17.67 13.6133 12.1167 18.6417L12 18.7583Z" fill="#71737B"/>
</svg>
