<svg width="40" height="40" viewBox="0 0 40 40" fill="none" xmlns="http://www.w3.org/2000/svg">
<path fill-rule="evenodd" clip-rule="evenodd" d="M19.9462 39.8924C8.93067 39.8924 0 30.9618 0 19.9462C0 8.93067 8.93067 0 19.9462 0C30.9618 0 39.8924 8.93067 39.8924 19.9462C39.8924 30.9618 30.9618 39.8924 19.9462 39.8924Z" fill="#DC4E41"/>
<path fill-rule="evenodd" clip-rule="evenodd" d="M13.1543 27.0425C15.8141 27.9815 19.085 27.28 20.8554 24.8882C22.1475 23.2116 22.4416 20.9778 22.3015 18.8915C20.0231 18.8693 17.7443 18.8774 15.4705 18.8802C15.4659 19.732 15.4705 20.5807 15.4732 21.4321C16.8367 21.4718 18.2014 21.4544 19.566 21.4828C19.2221 22.7225 18.4365 23.875 17.2467 24.3228C14.9471 25.385 12.0155 23.9966 11.2917 21.4653C10.4189 19.0403 11.8484 16.1147 14.2082 15.4104C15.6709 14.8706 17.1788 15.4785 18.4307 16.2764C19.0638 15.6543 19.6579 14.9877 20.2416 14.315C18.8179 13.0659 16.9904 12.2996 15.1115 12.4674C11.4245 12.5136 8.1976 16.0863 8.33773 19.9537C8.27597 23.0835 10.3297 26.0691 13.1543 27.0425Z" fill="white"/>
<path fill-rule="evenodd" clip-rule="evenodd" d="M27.3274 18.438C26.66 18.4441 25.9966 18.4482 25.3333 18.4512V20.4377C25.9966 20.4407 26.6641 20.4433 27.3274 20.4509C27.3335 21.114 27.3335 21.7771 27.3406 22.4444C28.0009 22.4444 28.6642 22.4399 29.3275 22.4444C29.3306 21.7771 29.3336 21.114 29.3408 20.4478C30.0041 20.4448 30.6704 20.4407 31.3333 20.4377V18.4512C30.6704 18.4482 30.0041 18.4452 29.3408 18.438C29.3362 17.7749 29.3306 17.1091 29.3275 16.446C28.6642 16.4444 28.0039 16.4444 27.3436 16.4444C27.338 17.1091 27.3304 17.7749 27.3274 18.438Z" fill="white"/>
<path fill-rule="evenodd" clip-rule="evenodd" d="M15.1118 12.4674C16.9907 12.2996 18.8183 13.0659 20.242 14.315C19.6583 14.9877 19.0642 15.6543 18.431 16.2764C17.1775 15.4785 15.6712 14.8689 14.2069 15.4104C11.8469 16.1147 10.4174 19.0403 11.2918 21.4637C12.0141 23.9966 14.9473 25.385 17.247 24.3212C18.4368 23.875 19.2209 22.7225 19.5664 21.4828C18.2017 21.4544 16.837 21.4718 15.4735 21.4321C15.4693 20.5807 15.4662 19.732 15.4693 18.8802C17.7446 18.8757 20.0235 18.8693 22.302 18.8899C22.4406 20.9778 22.1479 23.2116 20.8543 24.8882C19.0854 27.28 15.8144 27.9815 13.153 27.0425C10.3298 26.0691 8.27597 23.0835 8.33773 19.9537C8.1976 16.0863 11.4246 12.5136 15.1118 12.4674Z" fill="white"/>
<path fill-rule="evenodd" clip-rule="evenodd" d="M29.3275 16.4444C29.3306 17.1093 29.3362 17.7752 29.3408 18.4385C30.0041 18.4446 30.6704 18.4487 31.3333 18.4517V20.4387C30.6704 20.4417 30.0041 20.4443 29.3408 20.4488C29.3336 21.1152 29.3306 21.7785 29.3275 22.4444C28.6642 22.4414 27.9998 22.4444 27.3406 22.4444C27.3335 21.7785 27.3335 21.1152 27.3274 20.4519C26.6641 20.4443 25.9966 20.4417 25.3333 20.4387V18.4517C25.9966 18.4472 26.66 18.4446 27.3274 18.4385C27.3304 17.7752 27.3365 17.1093 27.3436 16.4444H29.3275Z" fill="white"/>
</svg>
