<svg width="17" height="17" viewBox="0 0 17 17" fill="none" xmlns="http://www.w3.org/2000/svg">
<path fill-rule="evenodd" clip-rule="evenodd" d="M5.76922 11.5385H11.1538C11.9462 11.5385 12.6266 12.0177 12.9211 12.7021C13.971 11.5983 14.6154 10.1052 14.6154 8.46154C14.6154 5.06286 11.8602 2.30769 8.46152 2.30769C5.06285 2.30769 2.30768 5.06286 2.30768 8.46154C2.30768 10.1052 2.95204 11.5983 4.00193 12.7021C4.29644 12.0177 4.97687 11.5385 5.76922 11.5385ZM0 8.46154C0 3.78836 3.78836 0 8.46154 0C13.1347 0 16.9231 3.78836 16.9231 8.46154C16.9231 13.1347 13.1347 16.9231 8.46154 16.9231C3.78836 16.9231 0 13.1347 0 8.46154ZM5.76923 7.69231C5.76923 6.20539 6.97461 5 8.46153 5C9.94845 5 11.1538 6.20539 11.1538 7.69231C11.1538 9.17923 9.94845 10.3846 8.46153 10.3846C6.97461 10.3846 5.76923 9.17923 5.76923 7.69231Z" fill="#9F9F9F"/>
<path fill-rule="evenodd" clip-rule="evenodd" d="M5.76922 11.5385H11.1538C11.9462 11.5385 12.6266 12.0177 12.9211 12.7021C13.971 11.5983 14.6154 10.1052 14.6154 8.46154C14.6154 5.06286 11.8602 2.30769 8.46152 2.30769C5.06285 2.30769 2.30768 5.06286 2.30768 8.46154C2.30768 10.1052 2.95204 11.5983 4.00193 12.7021C4.29644 12.0177 4.97687 11.5385 5.76922 11.5385ZM0 8.46154C0 3.78836 3.78836 0 8.46154 0C13.1347 0 16.9231 3.78836 16.9231 8.46154C16.9231 13.1347 13.1347 16.9231 8.46154 16.9231C3.78836 16.9231 0 13.1347 0 8.46154ZM5.76923 7.69231C5.76923 6.20539 6.97461 5 8.46153 5C9.94845 5 11.1538 6.20539 11.1538 7.69231C11.1538 9.17923 9.94845 10.3846 8.46153 10.3846C6.97461 10.3846 5.76923 9.17923 5.76923 7.69231Z" fill="#9F9F9F"/>
<mask id="mask0_0_5019" style="mask-type:luminance" maskUnits="userSpaceOnUse" x="0" y="0" width="17" height="17">
<path fill-rule="evenodd" clip-rule="evenodd" d="M5.76922 11.5385H11.1538C11.9462 11.5385 12.6266 12.0177 12.9211 12.7021C13.971 11.5983 14.6154 10.1052 14.6154 8.46154C14.6154 5.06286 11.8602 2.30769 8.46152 2.30769C5.06285 2.30769 2.30768 5.06286 2.30768 8.46154C2.30768 10.1052 2.95204 11.5983 4.00193 12.7021C4.29644 12.0177 4.97687 11.5385 5.76922 11.5385ZM0 8.46154C0 3.78836 3.78836 0 8.46154 0C13.1347 0 16.9231 3.78836 16.9231 8.46154C16.9231 13.1347 13.1347 16.9231 8.46154 16.9231C3.78836 16.9231 0 13.1347 0 8.46154ZM5.76923 7.69231C5.76923 6.20539 6.97461 5 8.46153 5C9.94845 5 11.1538 6.20539 11.1538 7.69231C11.1538 9.17923 9.94845 10.3846 8.46153 10.3846C6.97461 10.3846 5.76923 9.17923 5.76923 7.69231Z" fill="white"/>
</mask>
<g mask="url(#mask0_0_5019)">
</g>
</svg>
